<mxfile host="Electron" modified="2024-09-03T23:40:38.956Z" agent="Mozilla/5.0 (Macintosh; Intel Mac OS X 10_15_7) AppleWebKit/537.36 (KHTML, like Gecko) draw.io/24.2.5 Chrome/120.0.6099.109 Electron/28.1.0 Safari/537.36" etag="ToK6wnUsLgaV-k9iTInM" version="24.2.5" type="device">
  <diagram name="Page-1" id="UqjluDvvVya_DNWdg7QO">
    <mxGraphModel dx="1749" dy="2340" grid="1" gridSize="10" guides="1" tooltips="1" connect="1" arrows="1" fold="1" page="1" pageScale="1" pageWidth="850" pageHeight="1100" math="0" shadow="0">
      <root>
        <mxCell id="0" />
        <mxCell id="1" parent="0" />
        <mxCell id="Gm4Yaov_yTmIdK195puB-15" value="" style="shape=image;verticalLabelPosition=bottom;labelBackgroundColor=default;verticalAlign=top;aspect=fixed;imageAspect=0;image=https://m.media-amazon.com/images/I/B1HVVUyLAhL._CLa%7C2140%2C2000%7C71ldwWJcQML.png%7C0%2C0%2C2140%2C2000%2B0.0%2C0.0%2C2140.0%2C2000.0_AC_UY1000_.png;" vertex="1" parent="1">
          <mxGeometry x="120" y="-60" width="334.56" height="340" as="geometry" />
        </mxCell>
        <mxCell id="Gm4Yaov_yTmIdK195puB-8" value="&lt;div&gt;Deployment Frequency&lt;/div&gt;&lt;div&gt;Lead Time for Changes&lt;/div&gt;&lt;div&gt;Change Failure Rate&lt;/div&gt;&lt;div&gt;Automated Test Coverage&lt;/div&gt;" style="edgeStyle=orthogonalEdgeStyle;curved=1;rounded=0;hachureGap=4;orthogonalLoop=1;jettySize=auto;html=1;exitX=0.5;exitY=1;exitDx=0;exitDy=0;entryX=0;entryY=0.5;entryDx=0;entryDy=0;strokeColor=#FF00FF;strokeWidth=4;align=center;verticalAlign=middle;fontFamily=Architects Daughter;fontSource=https%3A%2F%2Ffonts.googleapis.com%2Fcss%3Ffamily%3DArchitects%2BDaughter;fontSize=18;fontColor=default;labelBackgroundColor=default;endArrow=classic;flowAnimation=1;" edge="1" parent="1" source="Gm4Yaov_yTmIdK195puB-1" target="Gm4Yaov_yTmIdK195puB-6">
          <mxGeometry x="-0.4839" y="-110" relative="1" as="geometry">
            <mxPoint as="offset" />
          </mxGeometry>
        </mxCell>
        <mxCell id="Gm4Yaov_yTmIdK195puB-1" value="DevOps" style="ellipse;whiteSpace=wrap;html=1;aspect=fixed;sketch=1;hachureGap=4;jiggle=2;curveFitting=1;fontFamily=Architects Daughter;fontSource=https%3A%2F%2Ffonts.googleapis.com%2Fcss%3Ffamily%3DArchitects%2BDaughter;fontSize=36;fillColor=#f5f5f5;gradientColor=#b3b3b3;strokeColor=#666666;" vertex="1" parent="1">
          <mxGeometry x="375" y="250" width="230" height="230" as="geometry" />
        </mxCell>
        <mxCell id="Gm4Yaov_yTmIdK195puB-12" value="&lt;font style=&quot;font-size: 18px;&quot;&gt;RPO / RTO / SLA&lt;/font&gt;&lt;div&gt;&lt;font style=&quot;font-size: 18px;&quot;&gt;Cost Efficient&lt;br&gt;Resource Utilization&lt;/font&gt;&lt;/div&gt;" style="edgeStyle=orthogonalEdgeStyle;curved=1;rounded=0;hachureGap=4;orthogonalLoop=1;jettySize=auto;html=1;entryX=0;entryY=0.5;entryDx=0;entryDy=0;strokeColor=#FF00FF;strokeWidth=4;align=center;verticalAlign=middle;fontFamily=Architects Daughter;fontSource=https%3A%2F%2Ffonts.googleapis.com%2Fcss%3Ffamily%3DArchitects%2BDaughter;fontSize=18;fontColor=default;labelBackgroundColor=default;endArrow=classic;flowAnimation=1;" edge="1" parent="1" source="Gm4Yaov_yTmIdK195puB-2" target="Gm4Yaov_yTmIdK195puB-11">
          <mxGeometry x="-0.3846" y="-10" relative="1" as="geometry">
            <mxPoint as="offset" />
          </mxGeometry>
        </mxCell>
        <mxCell id="Gm4Yaov_yTmIdK195puB-2" value="CloudOps" style="ellipse;whiteSpace=wrap;html=1;aspect=fixed;sketch=1;hachureGap=4;jiggle=2;curveFitting=1;fontFamily=Architects Daughter;fontSource=https%3A%2F%2Ffonts.googleapis.com%2Fcss%3Ffamily%3DArchitects%2BDaughter;fontSize=36;fillColor=#f5f5f5;gradientColor=#b3b3b3;strokeColor=#666666;" vertex="1" parent="1">
          <mxGeometry x="730" y="250" width="230" height="230" as="geometry" />
        </mxCell>
        <mxCell id="Gm4Yaov_yTmIdK195puB-13" value="MTTR/MTTD&lt;div&gt;Incident Respones&lt;/div&gt;&lt;div&gt;Vulnerability Management&lt;/div&gt;" style="edgeStyle=orthogonalEdgeStyle;curved=1;rounded=0;hachureGap=4;orthogonalLoop=1;jettySize=auto;html=1;entryX=1;entryY=0.5;entryDx=0;entryDy=0;strokeColor=#FF00FF;strokeWidth=4;align=center;verticalAlign=middle;fontFamily=Architects Daughter;fontSource=https%3A%2F%2Ffonts.googleapis.com%2Fcss%3Ffamily%3DArchitects%2BDaughter;fontSize=18;fontColor=default;labelBackgroundColor=default;endArrow=classic;flowAnimation=1;" edge="1" parent="1" source="Gm4Yaov_yTmIdK195puB-3" target="Gm4Yaov_yTmIdK195puB-11">
          <mxGeometry x="-0.3846" relative="1" as="geometry">
            <mxPoint as="offset" />
          </mxGeometry>
        </mxCell>
        <mxCell id="Gm4Yaov_yTmIdK195puB-3" value="SecOps" style="ellipse;whiteSpace=wrap;html=1;aspect=fixed;sketch=1;hachureGap=4;jiggle=2;curveFitting=1;fontFamily=Architects Daughter;fontSource=https%3A%2F%2Ffonts.googleapis.com%2Fcss%3Ffamily%3DArchitects%2BDaughter;fontSize=36;fillColor=#f5f5f5;gradientColor=#b3b3b3;strokeColor=#666666;" vertex="1" parent="1">
          <mxGeometry x="1110" y="260" width="220" height="220" as="geometry" />
        </mxCell>
        <mxCell id="Gm4Yaov_yTmIdK195puB-7" style="edgeStyle=orthogonalEdgeStyle;rounded=0;hachureGap=4;orthogonalLoop=1;jettySize=auto;html=1;exitX=0.5;exitY=1;exitDx=0;exitDy=0;fontFamily=Architects Daughter;fontSource=https%3A%2F%2Ffonts.googleapis.com%2Fcss%3Ffamily%3DArchitects%2BDaughter;flowAnimation=1;strokeWidth=4;strokeColor=#FF00FF;curved=1;fontSize=18;" edge="1" parent="1" source="Gm4Yaov_yTmIdK195puB-5" target="Gm4Yaov_yTmIdK195puB-1">
          <mxGeometry relative="1" as="geometry" />
        </mxCell>
        <mxCell id="Gm4Yaov_yTmIdK195puB-5" value="Code" style="rounded=1;whiteSpace=wrap;html=1;sketch=1;hachureGap=4;jiggle=2;curveFitting=1;fontFamily=Architects Daughter;fontSource=https%3A%2F%2Ffonts.googleapis.com%2Fcss%3Ffamily%3DArchitects%2BDaughter;fontSize=30;fillColor=#ffcd28;gradientColor=#ffa500;strokeColor=#d79b00;" vertex="1" parent="1">
          <mxGeometry x="430" y="110" width="120" height="60" as="geometry" />
        </mxCell>
        <mxCell id="Gm4Yaov_yTmIdK195puB-9" style="edgeStyle=orthogonalEdgeStyle;curved=1;rounded=0;hachureGap=4;orthogonalLoop=1;jettySize=auto;html=1;entryX=0.5;entryY=1;entryDx=0;entryDy=0;strokeColor=#FF00FF;strokeWidth=4;align=center;verticalAlign=middle;fontFamily=Architects Daughter;fontSource=https%3A%2F%2Ffonts.googleapis.com%2Fcss%3Ffamily%3DArchitects%2BDaughter;fontSize=18;fontColor=default;labelBackgroundColor=default;endArrow=classic;flowAnimation=1;exitX=1;exitY=0.25;exitDx=0;exitDy=0;" edge="1" parent="1" source="Gm4Yaov_yTmIdK195puB-6" target="Gm4Yaov_yTmIdK195puB-2">
          <mxGeometry relative="1" as="geometry" />
        </mxCell>
        <mxCell id="Gm4Yaov_yTmIdK195puB-10" style="edgeStyle=orthogonalEdgeStyle;curved=1;rounded=0;hachureGap=4;orthogonalLoop=1;jettySize=auto;html=1;exitX=1;exitY=0.75;exitDx=0;exitDy=0;entryX=0.5;entryY=1;entryDx=0;entryDy=0;strokeColor=#FF00FF;strokeWidth=4;align=center;verticalAlign=middle;fontFamily=Architects Daughter;fontSource=https%3A%2F%2Ffonts.googleapis.com%2Fcss%3Ffamily%3DArchitects%2BDaughter;fontSize=18;fontColor=default;labelBackgroundColor=default;endArrow=classic;flowAnimation=1;" edge="1" parent="1" source="Gm4Yaov_yTmIdK195puB-6" target="Gm4Yaov_yTmIdK195puB-3">
          <mxGeometry relative="1" as="geometry" />
        </mxCell>
        <mxCell id="Gm4Yaov_yTmIdK195puB-6" value="Deployment" style="rounded=1;whiteSpace=wrap;html=1;sketch=1;hachureGap=4;jiggle=2;curveFitting=1;fontFamily=Architects Daughter;fontSource=https%3A%2F%2Ffonts.googleapis.com%2Fcss%3Ffamily%3DArchitects%2BDaughter;fontSize=30;fillColor=#ffcd28;gradientColor=#ffa500;strokeColor=#d79b00;" vertex="1" parent="1">
          <mxGeometry x="610" y="610" width="200" height="60" as="geometry" />
        </mxCell>
        <mxCell id="Gm4Yaov_yTmIdK195puB-11" value="Runtime" style="rounded=1;whiteSpace=wrap;html=1;sketch=1;hachureGap=4;jiggle=2;curveFitting=1;fontFamily=Architects Daughter;fontSource=https%3A%2F%2Ffonts.googleapis.com%2Fcss%3Ffamily%3DArchitects%2BDaughter;fontSize=30;arcSize=14;fillColor=#ffcd28;gradientColor=#ffa500;strokeColor=#d79b00;" vertex="1" parent="1">
          <mxGeometry x="950" y="40" width="160" height="60" as="geometry" />
        </mxCell>
        <mxCell id="Gm4Yaov_yTmIdK195puB-18" style="edgeStyle=orthogonalEdgeStyle;curved=1;rounded=0;hachureGap=4;orthogonalLoop=1;jettySize=auto;html=1;entryX=0;entryY=0.5;entryDx=0;entryDy=0;strokeColor=#000000;strokeWidth=3;align=center;verticalAlign=middle;fontFamily=Architects Daughter;fontSource=https%3A%2F%2Ffonts.googleapis.com%2Fcss%3Ffamily%3DArchitects%2BDaughter;fontSize=11;fontColor=default;labelBackgroundColor=default;endArrow=classic;flowAnimation=0;sketch=1;curveFitting=1;jiggle=2;" edge="1" parent="1" source="Gm4Yaov_yTmIdK195puB-15" target="Gm4Yaov_yTmIdK195puB-1">
          <mxGeometry relative="1" as="geometry" />
        </mxCell>
        <mxCell id="Gm4Yaov_yTmIdK195puB-19" style="edgeStyle=orthogonalEdgeStyle;curved=1;rounded=0;sketch=1;hachureGap=4;jiggle=2;curveFitting=1;orthogonalLoop=1;jettySize=auto;html=1;exitX=0.412;exitY=0.996;exitDx=0;exitDy=0;entryX=0;entryY=0;entryDx=0;entryDy=0;strokeColor=#000000;strokeWidth=3;align=center;verticalAlign=middle;fontFamily=Architects Daughter;fontSource=https%3A%2F%2Ffonts.googleapis.com%2Fcss%3Ffamily%3DArchitects%2BDaughter;fontSize=11;fontColor=default;labelBackgroundColor=default;endArrow=classic;flowAnimation=0;exitPerimeter=0;" edge="1" parent="1" source="Gm4Yaov_yTmIdK195puB-17" target="Gm4Yaov_yTmIdK195puB-2">
          <mxGeometry relative="1" as="geometry" />
        </mxCell>
        <mxCell id="Gm4Yaov_yTmIdK195puB-17" value="" style="shape=image;verticalLabelPosition=bottom;labelBackgroundColor=default;verticalAlign=top;aspect=fixed;imageAspect=0;image=https://global.discourse-cdn.com/spiceworks/optimized/4X/5/6/6/56680a79ff40fc2d856b64bd6ae9caa4206a920c_2_610x500.jpeg;" vertex="1" parent="1">
          <mxGeometry x="490" y="-310" width="414.8" height="340" as="geometry" />
        </mxCell>
        <mxCell id="Gm4Yaov_yTmIdK195puB-20" value="" style="shape=umlActor;verticalLabelPosition=bottom;verticalAlign=top;html=1;outlineConnect=0;sketch=1;hachureGap=4;jiggle=2;curveFitting=1;fontFamily=Architects Daughter;fontSource=https%3A%2F%2Ffonts.googleapis.com%2Fcss%3Ffamily%3DArchitects%2BDaughter;fontSize=11;fontColor=default;labelBackgroundColor=default;" vertex="1" parent="1">
          <mxGeometry x="475" y="400" width="30" height="60" as="geometry" />
        </mxCell>
        <mxCell id="Gm4Yaov_yTmIdK195puB-21" value="" style="shape=umlActor;verticalLabelPosition=bottom;verticalAlign=top;html=1;outlineConnect=0;sketch=1;hachureGap=4;jiggle=2;curveFitting=1;fontFamily=Architects Daughter;fontSource=https%3A%2F%2Ffonts.googleapis.com%2Fcss%3Ffamily%3DArchitects%2BDaughter;fontSize=11;fontColor=default;labelBackgroundColor=default;" vertex="1" parent="1">
          <mxGeometry x="830" y="400" width="30" height="60" as="geometry" />
        </mxCell>
        <mxCell id="Gm4Yaov_yTmIdK195puB-22" value="" style="shape=umlActor;verticalLabelPosition=bottom;verticalAlign=top;html=1;outlineConnect=0;sketch=1;hachureGap=4;jiggle=2;curveFitting=1;fontFamily=Architects Daughter;fontSource=https%3A%2F%2Ffonts.googleapis.com%2Fcss%3Ffamily%3DArchitects%2BDaughter;fontSize=11;fontColor=default;labelBackgroundColor=default;" vertex="1" parent="1">
          <mxGeometry x="1210" y="400" width="30" height="60" as="geometry" />
        </mxCell>
        <mxCell id="Gm4Yaov_yTmIdK195puB-24" style="edgeStyle=orthogonalEdgeStyle;curved=1;rounded=0;sketch=1;hachureGap=4;jiggle=2;curveFitting=1;orthogonalLoop=1;jettySize=auto;html=1;exitX=0.75;exitY=0;exitDx=0;exitDy=0;entryX=0.703;entryY=0.961;entryDx=0;entryDy=0;strokeColor=#000000;strokeWidth=3;align=center;verticalAlign=middle;fontFamily=Architects Daughter;fontSource=https%3A%2F%2Ffonts.googleapis.com%2Fcss%3Ffamily%3DArchitects%2BDaughter;fontSize=11;fontColor=default;labelBackgroundColor=default;endArrow=classic;flowAnimation=0;entryPerimeter=0;" edge="1" parent="1" source="Gm4Yaov_yTmIdK195puB-23" target="Gm4Yaov_yTmIdK195puB-3">
          <mxGeometry relative="1" as="geometry" />
        </mxCell>
        <mxCell id="Gm4Yaov_yTmIdK195puB-23" value="" style="shape=image;verticalLabelPosition=bottom;labelBackgroundColor=default;verticalAlign=top;aspect=fixed;imageAspect=0;image=https://miro.medium.com/v2/resize:fit:1400/1*IXlGiGwfJaFw00NaDoGCnA.png;" vertex="1" parent="1">
          <mxGeometry x="850" y="690" width="480" height="270.4" as="geometry" />
        </mxCell>
        <mxCell id="Gm4Yaov_yTmIdK195puB-27" style="edgeStyle=orthogonalEdgeStyle;curved=1;rounded=0;sketch=1;hachureGap=4;jiggle=2;curveFitting=1;orthogonalLoop=1;jettySize=auto;html=1;entryX=0.5;entryY=0;entryDx=0;entryDy=0;strokeColor=#000000;strokeWidth=3;align=center;verticalAlign=middle;fontFamily=Architects Daughter;fontSource=https%3A%2F%2Ffonts.googleapis.com%2Fcss%3Ffamily%3DArchitects%2BDaughter;fontSize=11;fontColor=default;labelBackgroundColor=default;endArrow=classic;flowAnimation=0;exitX=0;exitY=0.5;exitDx=0;exitDy=0;" edge="1" parent="1" source="Gm4Yaov_yTmIdK195puB-26" target="Gm4Yaov_yTmIdK195puB-11">
          <mxGeometry relative="1" as="geometry" />
        </mxCell>
        <mxCell id="Gm4Yaov_yTmIdK195puB-26" value="" style="shape=image;imageAspect=0;aspect=fixed;verticalLabelPosition=bottom;verticalAlign=top;sketch=1;hachureGap=4;jiggle=2;curveFitting=1;fontFamily=Architects Daughter;fontSource=https%3A%2F%2Ffonts.googleapis.com%2Fcss%3Ffamily%3DArchitects%2BDaughter;fontSize=11;fontColor=default;labelBackgroundColor=default;image=https://teemadzika.wordpress.com/wp-content/uploads/2022/03/img_2761.jpg?w=768;" vertex="1" parent="1">
          <mxGeometry x="1105" y="-300" width="240" height="320" as="geometry" />
        </mxCell>
        <mxCell id="Gm4Yaov_yTmIdK195puB-30" style="edgeStyle=orthogonalEdgeStyle;curved=1;rounded=0;sketch=1;hachureGap=4;jiggle=2;curveFitting=1;orthogonalLoop=1;jettySize=auto;html=1;exitX=0.5;exitY=1;exitDx=0;exitDy=0;strokeColor=#000000;strokeWidth=3;align=center;verticalAlign=middle;fontFamily=Architects Daughter;fontSource=https%3A%2F%2Ffonts.googleapis.com%2Fcss%3Ffamily%3DArchitects%2BDaughter;fontSize=11;fontColor=default;labelBackgroundColor=default;endArrow=classic;flowAnimation=0;" edge="1" parent="1" source="Gm4Yaov_yTmIdK195puB-28" target="Gm4Yaov_yTmIdK195puB-29">
          <mxGeometry relative="1" as="geometry" />
        </mxCell>
        <mxCell id="Gm4Yaov_yTmIdK195puB-28" value="" style="shape=image;verticalLabelPosition=bottom;labelBackgroundColor=default;verticalAlign=top;aspect=fixed;imageAspect=0;image=https://pnghq.com/wp-content/uploads/marvel-what-if-png-free-png-images-12474.png;clipPath=inset(21.19% 0% 0% 0%);" vertex="1" parent="1">
          <mxGeometry x="162.9" y="680" width="387.1" height="120" as="geometry" />
        </mxCell>
        <mxCell id="Gm4Yaov_yTmIdK195puB-29" value="NOT" style="text;html=1;align=center;verticalAlign=middle;whiteSpace=wrap;rounded=0;fontFamily=Architects Daughter;fontSource=https%3A%2F%2Ffonts.googleapis.com%2Fcss%3Ffamily%3DArchitects%2BDaughter;fontSize=80;fontColor=default;labelBackgroundColor=default;" vertex="1" parent="1">
          <mxGeometry x="261.45" y="870" width="190" height="100" as="geometry" />
        </mxCell>
      </root>
    </mxGraphModel>
  </diagram>
</mxfile>
